Coordinates
version=1
nRows=18
nColumns=19
inDegrees=yes

Units are S.I. units (second, meters, Newtons, ...)
If the header above contains a line with 'inDegrees', this indicates whether rotational values are in degrees (yes) or radians (no).

endheader
time	pelvis_tilt	pelvis_list	pelvis_rotation	pelvis_tx	pelvis_ty	pelvis_tz	hip_flexion_r	hip_adduction_r	hip_rotation_r	knee_angle_r	knee_angle_r_beta	ankle_angle_r	hip_flexion_l	hip_adduction_l	hip_rotation_l	knee_angle_l	knee_angle_l_beta	ankle_angle_l
     16.78000000	      1.09272935	      8.22054883	      4.33424257	      2.11768688	      1.10531089	      1.02180023	    -27.57701021	    -12.45213284	    -28.73054610	     51.24013014	      0.89430898	    -13.83810333	     21.14487898	     13.15783320	      0.73871505	     13.06683591	      0.22805931	      6.54982866
     16.78666667	      1.59065692	      8.54783758	      4.45911254	      2.11754388	      1.10168981	      1.02154707	    -26.87591421	    -12.86874696	    -27.32702223	     55.19184164	      0.96327936	    -13.42110896	     20.64078015	     13.33467759	     -0.01202917	     14.25354371	      0.24877127	      5.72193153
     16.79333333	      1.75148167	      8.77756801	      4.57626345	      2.11693622	      1.09745846	      1.02149464	    -25.54755148	    -13.14691864	    -25.68139306	     59.34022691	      1.03568234	    -12.95672128	     20.72420839	     13.37759772	     -0.93240417	     16.08482020	      0.28073307	      4.92125853
     16.80000000	      2.17676859	      9.19271356	      4.80437617	      2.11586581	      1.09309537	      1.02156381	    -24.49849621	    -13.49763564	    -24.36722242	     63.49080015	      1.10812351	    -12.45328812	     20.67972443	     13.58847710	     -1.87011674	     18.46381951	      0.32225444	      4.33359599
     16.80666667	      1.69607485	      9.19125830	      5.06659978	      2.11429118	      1.08762426	      1.02173929	    -22.08606956	    -13.42721735	    -22.61222645	     67.88228693	      1.18476941	    -11.81807899	     21.83001179	     13.37936826	     -2.76413001	     21.38217389	      0.37318934	      3.95056679
     16.81333333	      1.57391444	      9.41571074	      5.33455927	      2.11241061	      1.08223677	      1.02219125	    -20.08419578	    -13.52557913	    -21.18985620	     72.18732791	      1.25990655	    -11.10649850	     22.58520360	     13.35887953	     -3.60344909	     24.46194908	      0.42694155	      3.92738243
     16.82000000	      1.42270827	      9.65635564	      5.65629887	      2.11016839	      1.07669143	      1.02275798	    -17.97902149	    -13.61304830	    -19.91558796	     76.44989130	      1.33430232	    -10.28045794	     23.35879441	     13.37191423	     -4.25423934	     27.64804671	      0.48254945	      4.29971669
     16.82666667	      1.22421282	      9.90614500	      6.08738190	      2.10763673	      1.07106839	      1.02332626	    -15.77685409	    -13.68322380	    -18.82689130	     80.63135169	      1.40728257	     -9.36600953	     24.11102694	     13.46332189	     -4.60565657	     30.82554327	      0.53800722	      5.10195424
     16.83333333	      1.07274269	     10.24223209	      6.48916944	      2.10487839	      1.06567520	      1.02397849	    -13.55472080	    -13.86977854	    -17.80858534	     84.70349549	      1.47835488	     -8.36675184	     24.67272834	     13.67117832	     -4.80635092	     33.81286753	      0.59014587	      6.27206899
     16.84000000	      0.91839571	     10.65193666	      6.91578932	      2.10194252	      1.06056769	      1.02461947	    -11.27527829	    -14.15342559	    -16.86802727	     88.63452839	      1.54696435	     -7.32843369	     25.06115815	     14.01896859	     -4.80360548	     36.54570300	      0.63784284	      7.76346504
     16.84666667	      0.75621235	     11.07521115	      7.34157651	      2.09885472	      1.05587876	      1.02520771	     -8.89601816	    -14.47114645	    -15.92041471	     92.40008782	      1.61268576	     -6.26894194	     25.26806183	     14.44269494	     -4.61525011	     38.97693832	      0.68027591	      9.49758825
     16.85333333	      0.60577538	     11.52686474	      7.72717574	      2.09571920	      1.05173516	      1.02580446	     -6.44000135	    -14.84035397	    -14.92493209	     95.96684338	      1.67493739	     -5.19642190	     25.24722625	     14.91987575	     -4.33087015	     41.05660210	      0.71657289	     11.36583274
     16.86000000	      0.43841535	     12.05453681	      7.98992318	      2.09263869	      1.04817577	      1.02640010	     -3.84614118	    -15.33835167	    -13.76152096	     99.33199903	      1.73367044	     -4.18062458	     24.99704381	     15.47866227	     -4.02945923	     42.69662437	      0.74519667	     13.28397432
     16.86666667	      0.19724215	     12.48770416	      8.19659058	      2.08959632	      1.04513488	      1.02696570	     -1.03819735	    -15.73040241	    -12.45788496	    102.45663970	      1.78820570	     -3.23889543	     24.63884577	     15.94811503	     -3.68215272	     44.01070524	      0.76813171	     15.16781468
     16.87333333	      0.18389137	     13.10861209	      8.17746542	      2.08683110	      1.04304589	      1.02767267	      1.59904221	    -16.32494313	    -10.95107329	    105.28720549	      1.83760840	     -2.35390038	     23.74361281	     16.52442993	     -3.45825313	     44.79512505	      0.78182242	     16.89569136
     16.88000000	     -0.27251432	     13.32690257	      8.18661214	      2.08412991	      1.04103402	      1.02824593	      4.91335474	    -16.44495005	     -9.28779027	    107.87174497	      1.88271712	     -1.59461019	     23.24123022	     16.74891194	     -3.12041416	     45.41942841	      0.79271857	     18.53383388
     16.88666667	      0.03596475	     13.63889370	      8.18920685	      2.08185402	      1.04064600	      1.02874402	      7.21964429	    -16.59980153	     -7.92204220	    109.93569054	      1.91873977	     -0.84502686	     21.58598574	     17.05375311	     -2.49778293	     45.56144510	      0.79519723	     20.07637697
     16.89333333	     -0.71558830	     13.87816119	      7.72677937	      2.07972596	      1.03942763	      1.02963462	     11.14470316	    -16.66029892	     -5.66004240	    111.99385226	      1.95466146	     -0.28808030	     21.06364008	     17.14518502	     -2.65427699	     45.44811984	      0.79321933	     21.14408872
